<svg width="24" height="24" viewBox="0 0 24 24" fill="none" xmlns="http://www.w3.org/2000/svg">
<path fill-rule="evenodd" clip-rule="evenodd" d="M22.9928 11.669C23.006 10.281 22.7403 8.90395 22.2109 7.61659C21.6815 6.32923 20.8988 5.15675 19.9074 4.16608C18.9159 3.17541 17.7353 2.38596 16.4328 1.8428C15.1303 1.29964 13.7314 1.01342 12.3161 1.00046C9.45782 0.974297 6.70599 2.06282 4.66599 4.02656C2.626 5.99031 1.46495 8.66842 1.43828 11.4717C1.43828 11.6268 1.43828 11.7818 1.43828 11.9368C1.43371 13.8505 1.96829 15.7282 2.98302 17.3627L1 23L6.97779 21.1538C8.61806 22.0336 10.4626 22.4818 12.332 22.4549C14.2013 22.428 16.0317 21.9268 17.6449 21.0002C19.2581 20.0736 20.5992 18.7531 21.5377 17.1673C22.4761 15.5815 22.9799 13.7844 23 11.9509C23 11.8452 23 11.7536 22.9928 11.669ZM12.2155 20.7733C10.4282 20.7832 8.67798 20.2731 7.18615 19.3076L3.71587 20.3998L4.84389 17.1161C3.7351 15.609 3.14379 13.7952 3.15545 11.9368C3.15545 11.6479 3.15545 11.359 3.19856 11.0771C3.42981 8.86942 4.49308 6.82591 6.18014 5.34683C7.8672 3.86774 10.0565 3.05965 12.3193 3.08081C14.582 3.10197 16.7552 3.95086 18.4132 5.46123C20.0712 6.97159 21.0945 9.03461 21.2828 11.2462C21.2828 11.4717 21.2828 11.7043 21.2828 11.9509C21.2657 14.3002 20.3007 16.5473 18.5988 18.2006C16.8969 19.8539 14.5966 20.7789 12.2012 20.7733H12.2155Z" fill="#3F2A23" fill-opacity="0.85"/>
<path fill-rule="evenodd" clip-rule="evenodd" d="M17.1444 13.8824C16.8786 13.7531 15.5782 13.1136 15.3411 13.0274C15.104 12.9412 14.9171 12.8981 14.7447 13.1567C14.5723 13.4154 14.0262 14.0117 13.9041 14.1842C13.7819 14.3566 13.5951 14.3853 13.3293 14.2488C12.5389 13.9475 11.8089 13.5071 11.1738 12.9484C10.607 12.4174 10.1226 11.8047 9.73687 11.1306C9.57881 10.872 9.73687 10.7283 9.85183 10.5989C9.96679 10.4696 10.1105 10.29 10.247 10.1391L10.3476 10.0098C10.4051 9.91637 10.4482 9.82297 10.5128 9.69364C10.5518 9.62329 10.5723 9.54417 10.5723 9.46372C10.5723 9.38328 10.5518 9.30416 10.5128 9.23381C10.4482 9.10448 9.91649 7.79684 9.69376 7.28672C9.47103 6.77659 9.25549 6.84844 9.09742 6.84844C8.93936 6.84844 8.76692 6.84844 8.59448 6.84844C8.45899 6.85037 8.32532 6.88006 8.20175 6.93567C8.07817 6.99128 7.96731 7.07163 7.876 7.17176C7.57707 7.45359 7.34024 7.79469 7.18064 8.17326C7.02105 8.55184 6.9422 8.95954 6.94915 9.37032C6.95473 9.67205 7.00064 9.97168 7.08567 10.2612C7.29308 10.9094 7.60625 11.5187 8.01251 12.0646C8.14184 12.2371 9.84465 14.9386 12.5318 16.0307C15.2189 17.1228 15.2261 16.7492 15.7147 16.6845C16.0885 16.6183 16.4437 16.4724 16.7562 16.2567C17.0686 16.041 17.3309 15.7605 17.5252 15.4343C17.7013 15.0427 17.7563 14.6073 17.6833 14.1842C17.5899 14.0764 17.4103 14.0117 17.1444 13.8824Z" fill="#3F2A23" fill-opacity="0.85"/>
</svg>
