<svg width="24" height="24" viewBox="0 0 24 24" fill="none" xmlns="http://www.w3.org/2000/svg">
<path d="M3.06423 7.23849C3.33334 7.60645 4.01435 7.7108 4.81069 7.49661C5.72142 7.2353 6.53279 6.70671 7.13983 5.97923C7.74688 5.25176 8.12167 4.35887 8.21572 3.41607C8.25589 2.94588 8.35554 2.48268 8.51229 2.03758C8.53643 1.98051 8.5431 1.91757 8.53145 1.85671C8.5198 1.79585 8.49035 1.73982 8.44683 1.69572C8.40331 1.65161 8.34768 1.62141 8.28699 1.60894C8.22629 1.59647 8.16326 1.6023 8.10588 1.62568C6.59876 2.21784 5.23831 3.13043 4.11869 4.30028C3.68136 4.73293 3.33744 5.25069 3.10817 5.82156C2.99029 6.03776 2.92489 6.27865 2.91726 6.52479C2.90963 6.77092 2.95997 7.0154 3.06423 7.23849Z" fill="url(#paint0_radial_1546_5402)"/>
<path d="M11.0941 20.5787C10.0561 17.4537 12.9889 15.5974 15.8282 13.8015C16.9324 13.1354 17.9943 12.4017 19.0081 11.6047C19.6474 11.1062 20.1518 10.4556 20.475 9.71209C20.7983 8.96862 20.9303 8.15602 20.8589 7.34845C20.7011 5.78873 19.9992 4.33437 18.8763 3.24044C18.8494 3.21261 18.8135 3.19514 18.775 3.19109C18.7366 3.18704 18.6979 3.19667 18.6658 3.21829C18.6337 3.23991 18.6102 3.27214 18.5995 3.30933C18.5888 3.34651 18.5915 3.38629 18.6072 3.42168C18.9569 4.15162 19.1138 4.95896 19.063 5.76676C18.8818 8.24914 16.5477 10.7755 11.7367 10.8139H11.149C8.15041 10.8139 5.55819 10.8523 4.16872 12.7745C3.4273 13.7906 3.22409 15.3063 3.61952 16.943C3.95016 18.3284 4.62016 19.6099 5.56918 20.672C6.32136 21.4968 7.26418 22.1247 8.31517 22.5009C8.91592 22.7238 9.53528 22.8929 10.166 23.0061C11.1299 23.1779 12.1122 23.2222 13.0877 23.1379C13.1284 23.1327 13.1662 23.1142 13.1953 23.0854C13.2244 23.0566 13.2433 23.0189 13.2489 22.9783C13.2545 22.9377 13.2466 22.8964 13.2264 22.8607C13.2062 22.8251 13.1748 22.797 13.1371 22.7809C12.6592 22.5809 12.2295 22.2809 11.8771 21.901C11.5248 21.5212 11.2578 21.0703 11.0941 20.5787Z" fill="url(#paint1_radial_1546_5402)"/>
<path d="M22.3195 7.46928C22.1492 7.21665 22.0119 7.46928 22.0449 7.56814C22.0782 8.5129 21.8893 9.45229 21.4935 10.3108C21.0976 11.1692 20.5058 11.9228 19.7657 12.5109C18.7157 13.34 17.6151 14.103 16.4705 14.7956C13.373 16.7562 11.5277 18.0633 12.2197 20.2052C12.7689 21.7594 14.2462 22.0011 15.0975 22.0066C17.0816 21.9015 18.9521 21.0477 20.3314 19.6176C21.8239 18.0144 22.809 16.0057 23.1628 13.8441C23.5165 11.6825 23.2231 9.46456 22.3195 7.46928Z" fill="url(#paint2_radial_1546_5402)"/>
<path d="M14.246 1.24137C13.7798 1.07237 13.2977 0.950934 12.8071 0.878897C12.3772 0.85417 11.9463 0.85417 11.5165 0.878897C11.1973 0.924842 10.8898 1.03108 10.6103 1.19194C9.92379 1.59835 9.51189 2.3837 9.38008 3.52604C9.25993 4.7036 8.78892 5.81795 8.02808 6.7247C7.26723 7.63145 6.25161 8.28881 5.1128 8.61162C4.578 8.76742 4.01538 8.80306 3.4652 8.71597C2.92318 8.63508 2.43432 8.34532 2.10319 7.90865C2.10319 7.90865 2.10319 7.87569 2.10319 7.86471C1.99335 7.7329 1.889 7.8043 1.8176 7.89766C1.53219 8.58169 1.32047 9.29417 1.18603 10.0231C0.753064 12.321 1.06475 14.6971 2.07573 16.8057C2.16909 16.91 2.34483 17.0473 2.3668 16.7453C2.19502 15.955 2.18132 15.1387 2.32647 14.3431C2.47163 13.5476 2.77278 12.7886 3.21257 12.11C4.95353 9.66608 7.96314 9.66608 11.143 9.66608H11.7306C15.7892 9.63313 17.7718 7.65052 17.8872 5.70636C18.008 4.05876 16.8876 2.14755 14.246 1.24137Z" fill="url(#paint3_radial_1546_5402)"/>
<defs>
<radialGradient id="paint0_radial_1546_5402" cx="0" cy="0" r="1" gradientUnits="userSpaceOnUse" gradientTransform="translate(9.91823 6.28288) scale(14.5483 14.5483)">
<stop offset="0.17" stop-color="#00A489"/>
<stop offset="0.76" stop-color="#005E49"/>
<stop offset="1" stop-color="#006E5E"/>
</radialGradient>
<radialGradient id="paint1_radial_1546_5402" cx="0" cy="0" r="1" gradientUnits="userSpaceOnUse" gradientTransform="translate(9.91883 6.283) scale(14.5483)">
<stop offset="0.17" stop-color="#00A489"/>
<stop offset="0.76" stop-color="#005E49"/>
<stop offset="1" stop-color="#006E5E"/>
</radialGradient>
<radialGradient id="paint2_radial_1546_5402" cx="0" cy="0" r="1" gradientUnits="userSpaceOnUse" gradientTransform="translate(9.91855 6.28301) scale(14.5483 14.5483)">
<stop offset="0.17" stop-color="#00A489"/>
<stop offset="0.76" stop-color="#005E49"/>
<stop offset="1" stop-color="#006E5E"/>
</radialGradient>
<radialGradient id="paint3_radial_1546_5402" cx="0" cy="0" r="1" gradientUnits="userSpaceOnUse" gradientTransform="translate(9.91829 6.28302) scale(14.5483 14.5483)">
<stop offset="0.17" stop-color="#00A489"/>
<stop offset="0.76" stop-color="#005E49"/>
<stop offset="1" stop-color="#006E5E"/>
</radialGradient>
</defs>
</svg>
