<svg width="24" height="24" viewBox="0 0 24 24" fill="none" xmlns="http://www.w3.org/2000/svg">
<path d="M2.95535 7.23849C3.22445 7.60645 3.90546 7.7108 4.7018 7.49661C5.61262 7.23638 6.42401 6.70797 7.03034 5.98018C7.63668 5.25238 8.00987 4.35891 8.10134 3.41607C8.14591 2.94605 8.24734 2.48317 8.4034 2.03758C8.42755 1.98051 8.43421 1.91757 8.42256 1.85671C8.41091 1.79585 8.38146 1.73982 8.33794 1.69572C8.29442 1.65161 8.2388 1.62141 8.1781 1.60894C8.11741 1.59647 8.05438 1.6023 7.99699 1.62568C6.48987 2.21784 5.12942 3.13043 4.00981 4.30028C3.57248 4.73293 3.22855 5.25069 2.99928 5.82156C2.8814 6.03776 2.816 6.27865 2.80837 6.52479C2.80074 6.77092 2.85109 7.0154 2.95535 7.23849Z" fill="url(#paint0_radial_1546_1457)"/>
<path d="M10.9843 20.5785C9.94627 17.4536 12.879 15.5973 15.7184 13.8014C16.8225 13.1353 17.8845 12.4016 18.8982 11.6046C19.5376 11.1061 20.0419 10.4554 20.3652 9.71197C20.6885 8.96849 20.8204 8.1559 20.749 7.34833C20.5912 5.78861 19.8893 4.33425 18.7664 3.24032C18.7395 3.21249 18.7037 3.19502 18.6652 3.19097C18.6267 3.18692 18.588 3.19655 18.5559 3.21817C18.5238 3.23978 18.5003 3.27201 18.4896 3.3092C18.4789 3.34639 18.4816 3.38617 18.4973 3.42155C18.847 4.1515 19.0039 4.95884 18.9531 5.76663C18.7719 8.24901 16.4378 10.7753 11.6268 10.8138H11.0392C8.04055 10.8138 5.44833 10.8522 4.05885 12.7744C3.31743 13.7904 3.11423 15.3062 3.50965 16.9428C3.83789 18.3292 4.50818 19.6112 5.45931 20.6719C6.2115 21.4967 7.15432 22.1246 8.20531 22.5007C8.80605 22.7237 9.42542 22.8927 10.0561 23.006C11.02 23.1778 12.0024 23.2221 12.9779 23.1378C13.0185 23.1326 13.0563 23.1141 13.0854 23.0853C13.1146 23.0564 13.1334 23.0188 13.139 22.9782C13.1446 22.9376 13.1367 22.8963 13.1165 22.8606C13.0964 22.8249 13.065 22.7969 13.0273 22.7808C12.5493 22.5808 12.1197 22.2808 11.7673 21.9009C11.4149 21.5211 11.1479 21.0702 10.9843 20.5785Z" fill="url(#paint1_radial_1546_1457)"/>
<path d="M22.2101 7.46928C22.0398 7.21665 21.9025 7.46928 21.9355 7.56814C21.9688 8.5129 21.78 9.45229 21.3841 10.3108C20.9882 11.1692 20.3965 11.9228 19.6563 12.5109C18.6063 13.34 17.5058 14.103 16.3611 14.7956C13.2636 16.7562 11.4183 18.0633 12.1103 20.2052C12.6595 21.7594 14.1369 22.0011 14.9881 22.0066C16.9723 21.9015 18.8427 21.0477 20.222 19.6176C21.7145 18.0144 22.6996 16.0057 23.0534 13.8441C23.4071 11.6825 23.1137 9.46456 22.2101 7.46928Z" fill="url(#paint2_radial_1546_1457)"/>
<path d="M14.1366 1.24125C13.6704 1.07225 13.1883 0.950812 12.6977 0.878775C12.2679 0.854048 11.8369 0.854048 11.4071 0.878775C11.0879 0.92472 10.7804 1.03096 10.5009 1.19182C9.81441 1.59823 9.40251 2.38358 9.2707 3.52591C9.15056 4.70348 8.67955 5.81782 7.9187 6.72457C7.15785 7.63133 6.14223 8.28869 5.00342 8.6115C4.46863 8.7673 3.906 8.80293 3.35583 8.71585C2.8138 8.63496 2.32495 8.34519 1.99381 7.90852C1.99381 7.90852 1.99381 7.87557 1.99381 7.86459C1.88398 7.73278 1.77962 7.80418 1.70823 7.89754C1.42282 8.58156 1.2111 9.29405 1.07665 10.0229C0.643689 12.3209 0.955375 14.697 1.96635 16.8055C2.05972 16.9099 2.23546 17.0472 2.25743 16.7451C2.08565 15.9549 2.07194 15.1385 2.2171 14.343C2.36226 13.5475 2.6634 12.7885 3.1032 12.1099C4.84416 9.66596 7.85376 9.66596 11.0336 9.66596H11.6213C15.6799 9.63301 17.6625 7.6504 17.7778 5.70623C17.8986 4.05864 16.7783 2.14742 14.1366 1.24125Z" fill="url(#paint3_radial_1546_1457)"/>
<defs>
<radialGradient id="paint0_radial_1546_1457" cx="0" cy="0" r="1" gradientUnits="userSpaceOnUse" gradientTransform="translate(9.80935 6.28288) scale(14.5483 14.5483)">
<stop offset="0.16" stop-color="#BCCCD4"/>
<stop offset="0.73" stop-color="#80A0B0"/>
<stop offset="0.99" stop-color="#A6BCC7"/>
</radialGradient>
<radialGradient id="paint1_radial_1546_1457" cx="0" cy="0" r="1" gradientUnits="userSpaceOnUse" gradientTransform="translate(9.80897 6.28288) scale(14.5483)">
<stop offset="0.16" stop-color="#BCCCD4"/>
<stop offset="0.73" stop-color="#80A0B0"/>
<stop offset="0.99" stop-color="#A6BCC7"/>
</radialGradient>
<radialGradient id="paint2_radial_1546_1457" cx="0" cy="0" r="1" gradientUnits="userSpaceOnUse" gradientTransform="translate(9.80917 6.28301) scale(14.5483)">
<stop offset="0.16" stop-color="#BCCCD4"/>
<stop offset="0.73" stop-color="#80A0B0"/>
<stop offset="0.99" stop-color="#A6BCC7"/>
</radialGradient>
<radialGradient id="paint3_radial_1546_1457" cx="0" cy="0" r="1" gradientUnits="userSpaceOnUse" gradientTransform="translate(9.80892 6.28289) scale(14.5483 14.5483)">
<stop offset="0.16" stop-color="#BCCCD4"/>
<stop offset="0.73" stop-color="#80A0B0"/>
<stop offset="0.99" stop-color="#A6BCC7"/>
</radialGradient>
</defs>
</svg>
