<svg width="24" height="26" viewBox="0 0 24 26" fill="none" xmlns="http://www.w3.org/2000/svg">
<path d="M2.53924 7.84359C2.8233 8.232 3.54214 8.34214 4.38272 8.11606C5.34405 7.84022 6.20049 7.28227 6.84126 6.51438C7.48203 5.74649 7.87764 4.80399 7.97692 3.80881C8.01932 3.3125 8.1245 2.82357 8.28996 2.35374C8.31545 2.2935 8.32249 2.22706 8.31019 2.16282C8.29789 2.09859 8.2668 2.03944 8.22087 1.99289C8.17493 1.94633 8.11621 1.91445 8.05214 1.90129C7.98808 1.88813 7.92155 1.89428 7.86098 1.91895C6.27012 2.54401 4.83409 3.5073 3.65228 4.74214C3.19065 5.19883 2.82762 5.74536 2.58562 6.34794C2.46118 6.57615 2.39215 6.83043 2.3841 7.09024C2.37604 7.35004 2.42918 7.60811 2.53924 7.84359Z" fill="url(#paint0_radial_1546_11133)"/>
<path d="M11.0145 21.9248C9.91887 18.6263 13.0145 16.6668 16.0116 14.7712C17.1771 14.068 18.2981 13.2936 19.3681 12.4523C20.043 11.9261 20.5754 11.2393 20.9166 10.4545C21.2579 9.66976 21.3971 8.81202 21.3218 7.95959C21.1552 6.31322 20.4143 4.77806 19.229 3.62336C19.2006 3.59398 19.1628 3.57554 19.1222 3.57127C19.0815 3.56699 19.0407 3.57716 19.0068 3.59998C18.9729 3.6228 18.9482 3.65682 18.9369 3.69607C18.9255 3.73533 18.9284 3.77731 18.945 3.81466C19.3168 4.58425 19.4826 5.43717 19.4261 6.29002C19.2348 8.91031 16.771 11.577 11.6986 11.6176H11.0725C7.90728 11.6176 5.17104 11.6581 3.70438 13.6871C2.92177 14.7596 2.70727 16.3596 3.12467 18.0871C3.47368 19.5495 4.18089 20.9022 5.18264 22.0234C5.97599 22.8947 6.97138 23.5576 8.08119 23.9538C8.71309 24.1898 9.36501 24.3683 10.029 24.4871C11.0465 24.6685 12.0834 24.7152 13.1131 24.6263C13.156 24.6207 13.1959 24.6013 13.2266 24.5708C13.2574 24.5404 13.2773 24.5007 13.2832 24.4578C13.2891 24.4149 13.2808 24.3713 13.2595 24.3337C13.2382 24.296 13.2051 24.2664 13.1652 24.2494C12.6618 24.0376 12.2094 23.7206 11.8385 23.3197C11.4676 22.9188 11.1866 22.4432 11.0145 21.9248Z" fill="url(#paint1_radial_1546_11133)"/>
<path d="M22.8642 8.08715C22.6845 7.82048 22.5396 8.08715 22.5743 8.1915C22.6095 9.18874 22.4102 10.1803 21.9923 11.0865C21.5745 11.9927 20.9498 12.7881 20.1686 13.4089C19.0602 14.284 17.8985 15.0894 16.6903 15.8205C13.4207 17.89 11.4729 19.2698 12.2033 21.5306C12.783 23.1712 14.3425 23.4263 15.241 23.4321C17.3354 23.3212 19.3097 22.42 20.7657 20.9103C22.3411 19.2181 23.3809 17.0978 23.7543 14.8161C24.1278 12.5344 23.818 10.1933 22.8642 8.08715Z" fill="url(#paint2_radial_1546_11133)"/>
<path d="M14.3421 1.51302C13.85 1.33464 13.3412 1.20645 12.8233 1.13042C12.3696 1.10431 11.9147 1.10431 11.461 1.13042C11.1241 1.17891 10.7995 1.29105 10.5045 1.46085C9.77982 1.88984 9.34503 2.71882 9.2059 3.92462C9.07908 5.1676 8.5819 6.34385 7.77879 7.30098C6.97567 8.25811 5.90362 8.95199 4.70155 9.29273C4.13704 9.45719 3.54316 9.4948 2.96242 9.40288C2.39028 9.3175 1.87427 9.01164 1.52474 8.5507C1.52474 8.5507 1.52474 8.51592 1.52474 8.50433C1.4088 8.3652 1.29865 8.44056 1.22329 8.53911C0.92202 9.26114 0.69854 10.0132 0.556626 10.7826C0.104084 13.2083 0.432903 15.7151 1.49575 17.942C1.5943 18.0522 1.77981 18.1971 1.803 17.8782C1.62167 17.0441 1.60721 16.1824 1.76043 15.3426C1.91365 14.5029 2.23153 13.7018 2.69575 12.9855C4.53343 10.4058 7.71024 10.4058 11.0668 10.4058H11.6871C15.9711 10.371 18.0639 8.27824 18.1856 6.22607C18.3131 4.48694 17.1305 2.46955 14.3421 1.51302Z" fill="url(#paint3_radial_1546_11133)"/>
<defs>
<radialGradient id="paint0_radial_1546_11133" cx="0" cy="0" r="1" gradientUnits="userSpaceOnUse" gradientTransform="translate(9.77402 6.8349) scale(15.3565 15.3565)">
<stop offset="0.17" stop-color="#39B54A"/>
<stop offset="0.47" stop-color="#009245"/>
<stop offset="0.98" stop-color="#00421E"/>
</radialGradient>
<radialGradient id="paint1_radial_1546_11133" cx="0" cy="0" r="1" gradientUnits="userSpaceOnUse" gradientTransform="translate(9.77394 6.83495) scale(15.3565)">
<stop offset="0.17" stop-color="#39B54A"/>
<stop offset="0.47" stop-color="#009245"/>
<stop offset="0.98" stop-color="#00421E"/>
</radialGradient>
<radialGradient id="paint2_radial_1546_11133" cx="0" cy="0" r="1" gradientUnits="userSpaceOnUse" gradientTransform="translate(9.77435 6.83498) scale(15.3565)">
<stop offset="0.17" stop-color="#39B54A"/>
<stop offset="0.47" stop-color="#009245"/>
<stop offset="0.98" stop-color="#00421E"/>
</radialGradient>
<radialGradient id="paint3_radial_1546_11133" cx="0" cy="0" r="1" gradientUnits="userSpaceOnUse" gradientTransform="translate(9.77402 6.83476) scale(15.3565 15.3565)">
<stop offset="0.17" stop-color="#39B54A"/>
<stop offset="0.47" stop-color="#009245"/>
<stop offset="0.98" stop-color="#00421E"/>
</radialGradient>
</defs>
</svg>
