<svg width="24" height="24" viewBox="0 0 24 24" fill="none" xmlns="http://www.w3.org/2000/svg">
<path d="M2.21851 6.90229C2.50715 7.29696 3.23758 7.40888 4.09172 7.17915C5.06865 6.90002 5.93893 6.33327 6.58927 5.55265C7.23961 4.77204 7.63989 3.81372 7.738 2.80245C7.78581 2.29831 7.8946 1.80184 8.06199 1.32391C8.08789 1.2627 8.09504 1.19519 8.08254 1.12992C8.07004 1.06464 8.03846 1.00455 7.99178 0.957241C7.9451 0.909934 7.88543 0.877542 7.82033 0.864168C7.75524 0.850795 7.68763 0.857041 7.62608 0.882116C6.00957 1.51725 4.55038 2.49607 3.3495 3.75083C2.88043 4.21488 2.51154 4.77023 2.26564 5.38252C2.1392 5.61441 2.06905 5.87279 2.06087 6.13678C2.05268 6.40078 2.10668 6.66301 2.21851 6.90229Z" fill="url(#paint0_radial_1546_12469)"/>
<path d="M10.8302 21.2105C9.71688 17.8588 12.8625 15.8678 15.9079 13.9415C17.0922 13.2271 18.2313 12.4402 19.3186 11.5853C20.0043 11.0506 20.5452 10.3527 20.892 9.5553C21.2388 8.75786 21.3803 7.88629 21.3037 7.02011C21.1345 5.3472 20.3816 3.78728 19.1772 2.61396C19.1483 2.58411 19.1099 2.56537 19.0686 2.56103C19.0273 2.55668 18.9858 2.56701 18.9514 2.5902C18.917 2.61339 18.8918 2.64796 18.8803 2.68785C18.8688 2.72773 18.8717 2.7704 18.8886 2.80835C19.2636 3.59127 19.4319 4.45721 19.3775 5.32363C19.1831 7.98617 16.6796 10.6958 11.5194 10.7371H10.8891C7.67285 10.7371 4.89248 10.7783 3.40216 12.84C2.60693 13.9298 2.38897 15.5556 2.8131 17.311C3.16516 18.7979 3.8841 20.173 4.90426 21.3107C5.71104 22.1953 6.72229 22.8688 7.84956 23.2722C8.49391 23.5113 9.15823 23.6927 9.83469 23.8142C10.8686 23.9984 11.9222 24.0459 12.9685 23.9555C13.0121 23.9499 13.0527 23.9301 13.0839 23.8992C13.1151 23.8683 13.1353 23.8279 13.1414 23.7843C13.1474 23.7408 13.1389 23.6965 13.1173 23.6582C13.0956 23.6199 13.062 23.5899 13.0215 23.5726C12.5088 23.3581 12.048 23.0363 11.6701 22.6289C11.2921 22.2214 11.0057 21.7378 10.8302 21.2105Z" fill="url(#paint1_radial_1546_12469)"/>
<path d="M22.8706 7.14967C22.688 6.87871 22.5408 7.14967 22.5761 7.2557C22.6119 8.26903 22.4093 9.2766 21.9847 10.1974C21.5601 11.1182 20.9254 11.9264 20.1315 12.5572C19.0053 13.4464 17.8249 14.2648 16.5972 15.0077C13.2749 17.1106 11.2956 18.5126 12.0378 20.8099C12.6269 22.477 14.2115 22.7361 15.1245 22.742C17.2527 22.6293 19.2588 21.7136 20.7383 20.1796C22.3391 18.4602 23.3957 16.3057 23.7752 13.9872C24.1546 11.6687 23.8399 9.28976 22.8706 7.14967Z" fill="url(#paint2_radial_1546_12469)"/>
<path d="M14.2116 0.469826C13.7115 0.288568 13.1945 0.158314 12.6682 0.0810482C12.2072 0.0545269 11.745 0.0545269 11.2839 0.0810482C10.9416 0.130328 10.6118 0.244274 10.312 0.416811C9.57567 0.852714 9.13387 1.69507 8.9925 2.92031C8.86208 4.18281 8.35633 5.37726 7.54049 6.34954C6.72465 7.32182 5.63617 8.02731 4.4155 8.37498C3.84189 8.54209 3.23843 8.58031 2.64832 8.4869C2.06695 8.40015 1.54262 8.08935 1.18745 7.62099C1.18745 7.62099 1.18745 7.58565 1.18745 7.57386C1.06964 7.43249 0.957713 7.50907 0.881136 7.60921C0.575008 8.34288 0.347923 9.10707 0.20372 9.88886C-0.260669 12.3536 0.073639 14.9022 1.15799 17.1637C1.25813 17.2756 1.44663 17.4229 1.4702 17.0989C1.28595 16.2514 1.27125 15.3757 1.42694 14.5225C1.58263 13.6692 1.90564 12.8552 2.37735 12.1273C4.24467 9.50597 7.47272 9.50597 10.8834 9.50597H11.5137C15.8668 9.47063 17.9933 7.34413 18.117 5.25887C18.2466 3.49169 17.045 1.44177 14.2116 0.469826Z" fill="url(#paint3_radial_1546_12469)"/>
<defs>
<radialGradient id="paint0_radial_1546_12469" cx="0" cy="0" r="1" gradientUnits="userSpaceOnUse" gradientTransform="translate(9.56409 5.87733) scale(15.6042 15.6041)">
<stop offset="0.23" stop-color="#F49F52"/>
<stop offset="0.68" stop-color="#642808"/>
<stop offset="0.74" stop-color="#692D0C"/>
<stop offset="0.81" stop-color="#783A16"/>
<stop offset="0.89" stop-color="#905028"/>
<stop offset="0.98" stop-color="#B26F40"/>
<stop offset="1" stop-color="#BE7948"/>
</radialGradient>
<radialGradient id="paint1_radial_1546_12469" cx="0" cy="0" r="1" gradientUnits="userSpaceOnUse" gradientTransform="translate(9.56373 5.87734) scale(15.6042 15.6041)">
<stop offset="0.23" stop-color="#F49F52"/>
<stop offset="0.68" stop-color="#642808"/>
<stop offset="0.74" stop-color="#692D0C"/>
<stop offset="0.81" stop-color="#783A16"/>
<stop offset="0.89" stop-color="#905028"/>
<stop offset="0.98" stop-color="#B26F40"/>
<stop offset="1" stop-color="#BE7948"/>
</radialGradient>
<radialGradient id="paint2_radial_1546_12469" cx="0" cy="0" r="1" gradientUnits="userSpaceOnUse" gradientTransform="translate(9.56378 5.87731) scale(15.6042 15.6041)">
<stop offset="0.23" stop-color="#F49F52"/>
<stop offset="0.68" stop-color="#642808"/>
<stop offset="0.74" stop-color="#692D0C"/>
<stop offset="0.81" stop-color="#783A16"/>
<stop offset="0.89" stop-color="#905028"/>
<stop offset="0.98" stop-color="#B26F40"/>
<stop offset="1" stop-color="#BE7948"/>
</radialGradient>
<radialGradient id="paint3_radial_1546_12469" cx="0" cy="0" r="1" gradientUnits="userSpaceOnUse" gradientTransform="translate(9.56389 5.87738) scale(15.6042 15.6041)">
<stop offset="0.23" stop-color="#F49F52"/>
<stop offset="0.68" stop-color="#642808"/>
<stop offset="0.74" stop-color="#692D0C"/>
<stop offset="0.81" stop-color="#783A16"/>
<stop offset="0.89" stop-color="#905028"/>
<stop offset="0.98" stop-color="#B26F40"/>
<stop offset="1" stop-color="#BE7948"/>
</radialGradient>
</defs>
</svg>
