<svg width="24" height="24" viewBox="0 0 24 24" fill="none" xmlns="http://www.w3.org/2000/svg">
<path d="M3.11941 7.23849C3.38852 7.60645 4.06952 7.7108 4.86586 7.49661C5.7766 7.2353 6.58797 6.70671 7.19501 5.97923C7.80206 5.25176 8.17684 4.35887 8.2709 3.41607C8.31106 2.94588 8.41071 2.48268 8.56746 2.03758C8.59161 1.98051 8.59828 1.91757 8.58662 1.85671C8.57497 1.79585 8.54552 1.73982 8.50201 1.69572C8.45849 1.65161 8.40286 1.62141 8.34216 1.60894C8.28147 1.59647 8.21844 1.6023 8.16106 1.62568C6.65393 2.21784 5.29348 3.13043 4.17387 4.30028C3.73654 4.73293 3.39261 5.25069 3.16335 5.82156C3.04546 6.03776 2.98007 6.27865 2.97243 6.52479C2.9648 6.77092 3.01515 7.0154 3.11941 7.23849Z" fill="url(#paint0_radial_1546_5394)"/>
<path d="M11.1488 20.5787C10.1108 17.4537 13.0435 15.5974 15.8829 13.8015C16.9871 13.1354 18.049 12.4017 19.0628 11.6047C19.7021 11.1062 20.2064 10.4556 20.5297 9.71209C20.853 8.96862 20.985 8.15602 20.9136 7.34845C20.7558 5.78873 20.0539 4.33437 18.931 3.24044C18.9041 3.21261 18.8682 3.19514 18.8297 3.19109C18.7912 3.18704 18.7526 3.19667 18.7205 3.21829C18.6884 3.23991 18.6649 3.27214 18.6542 3.30933C18.6435 3.34651 18.6462 3.38629 18.6619 3.42168C19.0115 4.15162 19.1685 4.95896 19.1177 5.76676C18.9365 8.24914 16.6024 10.7755 11.7914 10.8139H11.2037C8.2051 10.8139 5.61288 10.8523 4.2234 12.7745C3.48199 13.7906 3.27878 15.3063 3.6742 16.943C4.00485 18.3284 4.67484 19.6099 5.62386 20.672C6.37605 21.4968 7.31887 22.1247 8.36986 22.5009C8.9706 22.7238 9.58997 22.8929 10.2207 23.0061C11.1846 23.1779 12.1669 23.2222 13.1424 23.1379C13.1831 23.1327 13.2209 23.1142 13.25 23.0854C13.2791 23.0566 13.298 23.0189 13.3036 22.9783C13.3092 22.9377 13.3013 22.8964 13.2811 22.8607C13.2609 22.8251 13.2295 22.797 13.1918 22.7809C12.7138 22.5809 12.2842 22.2809 11.9318 21.901C11.5794 21.5212 11.3124 21.0703 11.1488 20.5787Z" fill="url(#paint1_radial_1546_5394)"/>
<path d="M22.3741 7.46928C22.2039 7.21665 22.0666 7.46928 22.0995 7.56814C22.1329 8.5129 21.944 9.45229 21.5482 10.3108C21.1523 11.1692 20.5605 11.9228 19.8204 12.5109C18.7703 13.34 17.6698 14.103 16.5252 14.7956C13.4277 16.7562 11.5824 18.0633 12.2744 20.2052C12.8236 21.7594 14.3009 22.0011 15.1522 22.0066C17.1363 21.9015 19.0067 21.0477 20.3861 19.6176C21.8786 18.0144 22.8637 16.0057 23.2174 13.8441C23.5712 11.6825 23.2778 9.46456 22.3741 7.46928Z" fill="url(#paint2_radial_1546_5394)"/>
<path d="M14.3007 1.24137C13.8345 1.07237 13.3524 0.950934 12.8618 0.878897C12.4319 0.85417 12.001 0.85417 11.5711 0.878897C11.252 0.924842 10.9445 1.03108 10.665 1.19194C9.97848 1.59835 9.56657 2.3837 9.43477 3.52604C9.31462 4.7036 8.84361 5.81795 8.08276 6.7247C7.32192 7.63145 6.30629 8.28881 5.16749 8.61162C4.63269 8.76742 4.07007 8.80306 3.51989 8.71597C2.97787 8.63508 2.48901 8.34532 2.15788 7.90865C2.15788 7.90865 2.15788 7.87569 2.15788 7.86471C2.04804 7.7329 1.94369 7.8043 1.87229 7.89766C1.58688 8.58169 1.37516 9.29417 1.24072 10.0231C0.807751 12.321 1.11944 14.6971 2.13042 16.8057C2.22378 16.91 2.39952 17.0473 2.42149 16.7453C2.24971 15.955 2.236 15.1387 2.38116 14.3431C2.52632 13.5476 2.82747 12.7886 3.26726 12.11C5.00822 9.66608 8.01783 9.66608 11.1977 9.66608H11.7853C15.8439 9.63313 17.8265 7.65052 17.9419 5.70636C18.0627 4.05876 16.9423 2.14755 14.3007 1.24137Z" fill="url(#paint3_radial_1546_5394)"/>
<defs>
<radialGradient id="paint0_radial_1546_5394" cx="0" cy="0" r="1" gradientUnits="userSpaceOnUse" gradientTransform="translate(9.97341 6.28288) scale(14.5483 14.5483)">
<stop offset="0.18" stop-color="#0098D5"/>
<stop offset="0.76" stop-color="#005E96"/>
<stop offset="0.99" stop-color="#006AA0"/>
</radialGradient>
<radialGradient id="paint1_radial_1546_5394" cx="0" cy="0" r="1" gradientUnits="userSpaceOnUse" gradientTransform="translate(9.97352 6.283) scale(14.5483)">
<stop offset="0.18" stop-color="#0098D5"/>
<stop offset="0.76" stop-color="#005E96"/>
<stop offset="0.99" stop-color="#006AA0"/>
</radialGradient>
<radialGradient id="paint2_radial_1546_5394" cx="0" cy="0" r="1" gradientUnits="userSpaceOnUse" gradientTransform="translate(9.97323 6.28301) scale(14.5483)">
<stop offset="0.18" stop-color="#0098D5"/>
<stop offset="0.76" stop-color="#005E96"/>
<stop offset="0.99" stop-color="#006AA0"/>
</radialGradient>
<radialGradient id="paint3_radial_1546_5394" cx="0" cy="0" r="1" gradientUnits="userSpaceOnUse" gradientTransform="translate(9.97298 6.28302) scale(14.5483 14.5483)">
<stop offset="0.18" stop-color="#0098D5"/>
<stop offset="0.76" stop-color="#005E96"/>
<stop offset="0.99" stop-color="#006AA0"/>
</radialGradient>
</defs>
</svg>
