<svg width="24" height="24" viewBox="0 0 24 24" fill="none" xmlns="http://www.w3.org/2000/svg">
<path d="M3.06423 6.79904C3.33334 7.167 4.01435 7.27135 4.81069 7.05716C5.72151 6.79693 6.5329 6.26852 7.13923 5.54072C7.74556 4.81293 8.11875 3.91946 8.21023 2.97661C8.2548 2.50659 8.35623 2.04371 8.51229 1.59812C8.53643 1.54106 8.5431 1.47811 8.53145 1.41726C8.5198 1.3564 8.49035 1.30037 8.44683 1.25626C8.40331 1.21216 8.34768 1.18196 8.28699 1.16949C8.22629 1.15702 8.16326 1.16284 8.10588 1.18622C6.59876 1.77838 5.23831 2.69097 4.11869 3.86082C3.68136 4.29348 3.33744 4.81124 3.10817 5.3821C2.99029 5.59831 2.92489 5.8392 2.91726 6.08533C2.90963 6.33147 2.95997 6.57595 3.06423 6.79904Z" fill="url(#paint0_radial_1546_10543)"/>
<path d="M11.0941 20.1391C10.0561 17.0141 12.9889 15.1578 15.8282 13.362C16.9324 12.6958 17.9943 11.9622 19.0081 11.1652C19.6474 10.6667 20.1518 10.016 20.475 9.27251C20.7983 8.52904 20.9303 7.71644 20.8589 6.90887C20.7011 5.34916 19.9992 3.89479 18.8763 2.80086C18.8494 2.77304 18.8135 2.75557 18.775 2.75152C18.7366 2.74746 18.6979 2.75709 18.6658 2.77871C18.6337 2.80033 18.6102 2.83256 18.5995 2.86975C18.5888 2.90694 18.5915 2.94671 18.6072 2.9821C18.9569 3.71205 19.1138 4.51939 19.063 5.32718C18.8818 7.80956 16.5477 10.3359 11.7367 10.3743H11.149C8.15041 10.3743 5.55819 10.4128 4.16872 12.335C3.4273 13.351 3.22409 14.8668 3.61952 16.5034C3.94776 17.8897 4.61804 19.1718 5.56918 20.2324C6.32136 21.0572 7.26418 21.6851 8.31517 22.0613C8.91592 22.2842 9.53528 22.4533 10.166 22.5665C11.1299 22.7383 12.1122 22.7826 13.0877 22.6983C13.1284 22.6931 13.1662 22.6747 13.1953 22.6458C13.2244 22.617 13.2433 22.5794 13.2489 22.5388C13.2545 22.4981 13.2466 22.4568 13.2264 22.4211C13.2062 22.3855 13.1748 22.3574 13.1371 22.3414C12.6592 22.1413 12.2295 21.8413 11.8771 21.4615C11.5248 21.0816 11.2578 20.6307 11.0941 20.1391Z" fill="url(#paint1_radial_1546_10543)"/>
<path d="M22.3195 7.02983C22.1492 6.7772 22.0119 7.02983 22.0449 7.12869C22.0782 8.07344 21.8893 9.01283 21.4935 9.87131C21.0976 10.7298 20.5058 11.4834 19.7657 12.0715C18.7157 12.9005 17.6151 13.6635 16.4705 14.3561C13.373 16.3168 11.5277 17.6239 12.2197 19.7658C12.7689 21.32 14.2462 21.5616 15.0975 21.5671C17.0816 21.462 18.9521 20.6083 20.3314 19.1781C21.8239 17.575 22.809 15.5663 23.1628 13.4047C23.5165 11.2431 23.2231 9.0251 22.3195 7.02983Z" fill="url(#paint2_radial_1546_10543)"/>
<path d="M14.2465 0.801793C13.7803 0.6328 13.2982 0.511359 12.8076 0.439321C12.3777 0.414595 11.9468 0.414595 11.517 0.439321C11.1978 0.485266 10.8903 0.591502 10.6108 0.752365C9.92428 1.15877 9.51237 1.94413 9.38057 3.08646C9.25898 4.26353 8.78744 5.37716 8.02681 6.28365C7.26618 7.19014 6.25136 7.8479 5.11329 8.17204C4.57849 8.32785 4.01587 8.36348 3.46569 8.27639C2.92367 8.19551 2.43481 7.90574 2.10368 7.46907C2.10368 7.46907 2.10368 7.43612 2.10368 7.42513C1.99384 7.29333 1.88949 7.36472 1.81809 7.45809C1.53268 8.14211 1.32096 8.8546 1.18652 9.58349C0.753552 11.8814 1.06524 14.2576 2.07622 16.3661C2.16958 16.4704 2.34532 16.6077 2.36729 16.3057C2.19551 15.5155 2.18181 14.6991 2.32696 13.9035C2.47212 13.108 2.77327 12.3491 3.21306 11.6704C4.95402 9.22651 7.96363 9.22651 11.1435 9.22651H11.7311C15.7897 9.19356 17.7723 7.21095 17.8877 5.26678C18.0085 3.61918 16.8881 1.70797 14.2465 0.801793Z" fill="url(#paint3_radial_1546_10543)"/>
<defs>
<radialGradient id="paint0_radial_1546_10543" cx="0" cy="0" r="1" gradientUnits="userSpaceOnUse" gradientTransform="translate(9.91274 5.84343) scale(14.5483 14.5483)">
<stop offset="0.17" stop-color="#80C241"/>
<stop offset="0.76" stop-color="#388532"/>
<stop offset="1" stop-color="#03943F"/>
</radialGradient>
<radialGradient id="paint1_radial_1546_10543" cx="0" cy="0" r="1" gradientUnits="userSpaceOnUse" gradientTransform="translate(9.91334 5.84343) scale(14.5483 14.5483)">
<stop offset="0.17" stop-color="#80C241"/>
<stop offset="0.76" stop-color="#388532"/>
<stop offset="1" stop-color="#03943F"/>
</radialGradient>
<radialGradient id="paint2_radial_1546_10543" cx="0" cy="0" r="1" gradientUnits="userSpaceOnUse" gradientTransform="translate(9.91305 5.84356) scale(14.5483)">
<stop offset="0.17" stop-color="#80C241"/>
<stop offset="0.76" stop-color="#388532"/>
<stop offset="1" stop-color="#03943F"/>
</radialGradient>
<radialGradient id="paint3_radial_1546_10543" cx="0" cy="0" r="1" gradientUnits="userSpaceOnUse" gradientTransform="translate(9.91329 5.84344) scale(14.5483 14.5483)">
<stop offset="0.17" stop-color="#80C241"/>
<stop offset="0.76" stop-color="#388532"/>
<stop offset="1" stop-color="#03943F"/>
</radialGradient>
</defs>
</svg>
