<svg width="65" height="79" viewBox="0 0 65 79" fill="none" xmlns="http://www.w3.org/2000/svg">
<g clip-path="url(#clip0_1435_249)">
<path d="M5.09946 61.2044H6.12533V67.5631H5.09946V64.795H1.52163V67.5631H0.5V61.2044H1.52163V63.8624H5.09946V61.2044Z" fill="#3F2A23"/>
<path d="M13.5947 66.6305V67.5631H13.0351C12.1873 67.5631 11.899 67.2028 11.8863 66.5797C11.6535 66.9232 11.3362 67.2011 10.9651 67.3867C10.5939 67.5723 10.1812 67.6593 9.76672 67.6394C8.36781 67.6394 7.42249 66.94 7.42249 65.7827C7.42249 64.511 8.30846 63.7988 9.96596 63.7988H11.8354V63.3749C11.8354 62.5525 11.2504 62.0523 10.2542 62.0523C9.35553 62.0523 8.75781 62.4762 8.63064 63.1248H7.60901C7.75738 61.8785 8.77053 61.1409 10.3009 61.1409C11.9244 61.1409 12.8443 61.9548 12.8443 63.4385V66.2193C12.8443 66.5542 12.9715 66.6433 13.2682 66.6433L13.5947 66.6305ZM11.8354 64.6593H9.86422C8.95705 64.6593 8.44412 64.9942 8.44412 65.7191C8.44412 66.3423 8.98249 66.7662 9.83031 66.7662C11.1021 66.7662 11.8354 66.0286 11.8354 64.9688V64.6593Z" fill="#3F2A23"/>
<path d="M18.3976 61.2044H19.4193V67.5631H18.3976V65.0197C17.8656 65.3479 17.2507 65.517 16.6257 65.5072C15.0784 65.5072 14.1331 64.8331 14.1331 63.2011V61.2172H15.1547V63.0273C15.1547 64.1846 15.7143 64.583 16.8249 64.583C17.3935 64.6097 17.9523 64.4289 18.3976 64.0743V61.2044Z" fill="#3F2A23"/>
<path d="M26.8928 66.6305V67.5631H26.329C25.4812 67.5631 25.1972 67.2028 25.1845 66.5797C24.9514 66.9229 24.6341 67.2006 24.263 67.3861C23.8919 67.5717 23.4794 67.6589 23.0649 67.6394C21.666 67.6394 20.7164 66.94 20.7164 65.7827C20.7164 64.511 21.6024 63.7988 23.2599 63.7988H25.1294V63.3749C25.1294 62.5525 24.5444 62.0523 23.5439 62.0523C22.6452 62.0523 22.0475 62.4762 21.9246 63.1248H20.9072C21.0556 61.8785 22.0645 61.1409 23.599 61.1409C25.2184 61.1409 26.1425 61.9548 26.1425 63.4385V66.2193C26.1425 66.5542 26.2697 66.6433 26.5664 66.6433L26.8928 66.6305ZM25.1336 64.6593H23.1624C22.251 64.6593 21.7423 64.9942 21.7423 65.7191C21.7423 66.3423 22.2764 66.7662 23.1243 66.7662C24.396 66.7662 25.1336 66.0286 25.1336 64.9688V64.6593Z" fill="#3F2A23"/>
<path d="M27.4778 67.5631V66.6305H27.6643C28.3892 66.6305 28.6647 66.2066 28.6647 64.2863V61.2044H33.4762V67.5631H32.4418V62.1413H29.6609V64.3202C29.6609 66.8637 29.0632 67.5631 27.8296 67.5631H27.4778Z" fill="#3F2A23"/>
<path d="M34.7776 64.3838C34.7776 62.4507 36.0748 61.1281 37.9315 61.1281C39.7882 61.1281 41.0854 62.4507 41.0854 64.3838C41.0854 66.3168 39.7882 67.6522 37.9527 67.6522C36.1172 67.6522 34.7776 66.3168 34.7776 64.3838ZM40.0383 64.3838C40.0383 63.023 39.1905 62.0396 37.9188 62.0396C36.647 62.0396 35.7992 63.023 35.7992 64.3838C35.7992 65.7446 36.647 66.728 37.9188 66.728C39.1905 66.728 40.0383 65.7446 40.0383 64.3838Z" fill="#3F2A23"/>
<path d="M0.5 78.161V71.8023H3.19185C4.76456 71.8023 5.52337 72.4127 5.52337 73.4979C5.53645 73.8097 5.44027 74.1163 5.25143 74.3647C5.06259 74.6131 4.79294 74.7879 4.48902 74.8587C4.84818 74.8848 5.18271 75.051 5.42058 75.3213C5.65844 75.5917 5.7806 75.9447 5.76076 76.3042C5.76076 77.5378 4.8875 78.1482 3.21728 78.1482L0.5 78.161ZM1.52163 74.5068H3.29359C4.14141 74.5068 4.50174 74.1592 4.50174 73.5869C4.50174 73.0147 4.14141 72.6755 3.29359 72.6755H1.52163V74.5068ZM1.52163 77.2877H3.39109C4.26435 77.2877 4.73913 76.991 4.73913 76.3297C4.73913 75.6684 4.26435 75.3547 3.39109 75.3547H1.52163V77.2877Z" fill="#3F2A23"/>
<path d="M6.81201 74.9943C6.81201 73.0486 8.08375 71.726 9.91505 71.726C10.5858 71.678 11.2496 71.8876 11.7711 72.3122C12.2925 72.7368 12.6324 73.3443 12.7214 74.0109H11.6701C11.5979 73.6086 11.3797 73.2473 11.0573 72.9961C10.735 72.745 10.3312 72.6217 9.92353 72.6501C8.70266 72.6501 7.88027 73.6251 7.88027 75.0071C7.88027 76.389 8.70266 77.3386 9.92353 77.3386C10.3237 77.3567 10.7173 77.2325 11.0347 76.9881C11.352 76.7436 11.5726 76.3948 11.6573 76.0033H12.7426C12.4924 77.3767 11.4708 78.25 9.91082 78.25C8.03288 78.25 6.81201 76.9783 6.81201 74.9943Z" fill="#3F2A23"/>
<path d="M13.6074 74.9816C13.6074 73.0486 14.8325 71.726 16.6257 71.726C18.4188 71.726 19.5931 72.8621 19.6439 74.7442C19.6439 74.8841 19.6439 75.0325 19.6185 75.1681H14.6799V75.2826C14.7181 76.4907 15.4811 77.3386 16.6893 77.3386C17.0946 77.366 17.4969 77.2515 17.8271 77.0149C18.1574 76.7782 18.395 76.4341 18.4994 76.0414H19.5337C19.414 76.682 19.0673 77.2579 18.5573 77.6635C18.0473 78.0692 17.4082 78.2774 16.7571 78.25C14.8537 78.25 13.6074 76.9274 13.6074 74.9816ZM18.546 74.333C18.5365 74.095 18.479 73.8612 18.3771 73.6459C18.2751 73.4305 18.1308 73.2379 17.9527 73.0796C17.7746 72.9214 17.5664 72.8006 17.3406 72.7246C17.1148 72.6486 16.876 72.6189 16.6384 72.6374C16.168 72.6329 15.7129 72.8043 15.3623 73.118C15.0118 73.4317 14.7911 73.865 14.7435 74.333H18.546Z" fill="#3F2A23"/>
<path d="M20.941 78.161V71.8023H25.0191V72.7391H21.9669V78.161H20.941Z" fill="#3F2A23"/>
<path d="M25.4092 74.9816C25.4092 73.0486 26.7064 71.726 28.5631 71.726C30.4198 71.726 31.717 73.0486 31.717 74.9816C31.717 76.9147 30.4241 78.25 28.5631 78.25C26.7021 78.25 25.4092 76.9147 25.4092 74.9816ZM30.6699 74.9816C30.6699 73.6209 29.8221 72.6374 28.5504 72.6374C27.2786 72.6374 26.4308 73.6209 26.4308 74.9816C26.4308 76.3424 27.2786 77.3259 28.5504 77.3259C29.8221 77.3259 30.6699 76.3424 30.6699 74.9816Z" fill="#3F2A23"/>
<path d="M8.1007 53.468H0.508423V17.3167H22.3018L21.2971 23.8068H8.1007V53.468Z" fill="#3F2A23"/>
<path d="M43.5823 53.468L40.8523 44.8499H28.1349L25.3583 53.468H17.7787L30.3223 17.3167H39.2244L51.7765 53.468H43.5823ZM34.3113 24.837L29.7797 39.0126H39.2456L34.7649 24.837H34.3113Z" fill="#3F2A23"/>
<path d="M49.0083 5.15891C49.216 5.44293 49.7417 5.52348 50.3564 5.35815C51.0593 5.15645 51.6856 4.74844 52.1542 4.18692C52.6227 3.6254 52.912 2.9362 52.9846 2.20848C53.0156 1.84555 53.0925 1.48802 53.2135 1.14446C53.2322 1.10041 53.2373 1.05182 53.2283 1.00485C53.2193 0.957877 53.1966 0.91463 53.163 0.880585C53.1294 0.84654 53.0865 0.823229 53.0396 0.813605C52.9928 0.803981 52.9441 0.808476 52.8998 0.826522C51.7365 1.2836 50.6864 1.988 49.8222 2.89098C49.4847 3.22493 49.2192 3.62458 49.0422 4.06522C48.9512 4.2321 48.9008 4.41804 48.8949 4.60802C48.889 4.79801 48.9278 4.98671 49.0083 5.15891Z" fill="url(#paint0_radial_1435_249)"/>
<path d="M55.206 15.4558C54.4048 13.0437 56.6685 11.6109 58.8601 10.2247C59.7124 9.7105 60.5321 9.14421 61.3145 8.52902C61.808 8.14424 62.1973 7.642 62.4469 7.06813C62.6964 6.49426 62.7983 5.86704 62.7431 5.2437C62.6213 4.03979 62.0796 2.9172 61.2128 2.07283C61.192 2.05135 61.1644 2.03786 61.1347 2.03474C61.105 2.03161 61.0751 2.03904 61.0503 2.05573C61.0255 2.07242 61.0074 2.09729 60.9992 2.126C60.9909 2.1547 60.993 2.1854 61.0051 2.21272C61.277 2.77548 61.3983 3.39918 61.3569 4.02283C61.217 5.93891 59.4154 7.88891 55.7062 7.91859H55.2484C52.9338 7.91859 50.9329 7.94826 49.8604 9.43196C49.2881 10.2162 49.1313 11.3862 49.4365 12.6495C49.6917 13.7188 50.2089 14.708 50.9414 15.5278C51.5215 16.165 52.2494 16.6498 53.061 16.9395C53.523 17.1121 53.9998 17.2426 54.4853 17.3295C55.2293 17.4621 55.9876 17.4963 56.7405 17.4312C56.7719 17.4272 56.8011 17.4129 56.8236 17.3907C56.8461 17.3684 56.8606 17.3393 56.8649 17.308C56.8693 17.2767 56.8632 17.2448 56.8476 17.2172C56.832 17.1897 56.8078 17.1681 56.7787 17.1557C56.4105 17.0008 56.0797 16.769 55.8085 16.4758C55.5372 16.1826 55.3318 15.8348 55.206 15.4558Z" fill="url(#paint1_radial_1435_249)"/>
<path d="M63.8708 5.33696C63.7394 5.14196 63.6334 5.33696 63.6588 5.41326C63.6846 6.14249 63.5388 6.86759 63.2332 7.53022C62.9277 8.19286 62.4709 8.77453 61.8996 9.22848C61.0891 9.8684 60.2397 10.4574 59.3561 10.992C56.9653 12.5053 55.5409 13.5142 56.075 15.1675C56.499 16.3672 57.6393 16.5537 58.2964 16.5579C59.8279 16.4768 61.2716 15.8178 62.3362 14.7139C63.4883 13.4765 64.2487 11.926 64.5217 10.2575C64.7948 8.58904 64.5683 6.87706 63.8708 5.33696Z" fill="url(#paint2_radial_1435_249)"/>
<path d="M57.6392 0.529782C57.2793 0.399341 56.9072 0.305604 56.5285 0.25C56.1967 0.230914 55.8641 0.230914 55.5323 0.25C55.286 0.285464 55.0486 0.367464 54.8329 0.49163C54.303 0.805326 53.9851 1.41152 53.8833 2.29326C53.7906 3.20219 53.427 4.06233 52.8397 4.76223C52.2525 5.46212 51.4685 5.96953 50.5895 6.2187C50.1767 6.33895 49.7424 6.36646 49.3178 6.29924C48.8994 6.23681 48.5221 6.01314 48.2665 5.67609C48.2665 5.67609 48.2665 5.65065 48.2665 5.64217C48.1817 5.54043 48.1011 5.59554 48.046 5.66761C47.8257 6.19559 47.6623 6.74554 47.5585 7.30815C47.2276 9.08196 47.4681 10.915 48.2453 12.5435C48.3173 12.624 48.453 12.73 48.4699 12.4968C48.3374 11.8869 48.3268 11.2567 48.4388 10.6427C48.5509 10.0286 48.7833 9.44283 49.1228 8.91902C50.4666 7.03261 52.7896 7.03261 55.2441 7.03261H55.6977C58.8304 7.00717 60.3607 5.47685 60.4497 3.9762C60.543 2.70446 59.6782 1.22924 57.6392 0.529782Z" fill="url(#paint3_radial_1435_249)"/>
</g>
<defs>
<radialGradient id="paint0_radial_1435_249" cx="0" cy="0" r="1" gradientUnits="userSpaceOnUse" gradientTransform="translate(54.2987 4.4213) scale(11.2294 11.2295)">
<stop offset="0.23" stop-color="#F49F52"/>
<stop offset="0.68" stop-color="#642808"/>
<stop offset="0.74" stop-color="#692D0C"/>
<stop offset="0.81" stop-color="#783A16"/>
<stop offset="0.89" stop-color="#905028"/>
<stop offset="0.98" stop-color="#B26F40"/>
<stop offset="1" stop-color="#BE7948"/>
</radialGradient>
<radialGradient id="paint1_radial_1435_249" cx="0" cy="0" r="1" gradientUnits="userSpaceOnUse" gradientTransform="translate(54.2988 4.4213) scale(11.2295 11.2295)">
<stop offset="0.23" stop-color="#F49F52"/>
<stop offset="0.68" stop-color="#642808"/>
<stop offset="0.74" stop-color="#692D0C"/>
<stop offset="0.81" stop-color="#783A16"/>
<stop offset="0.89" stop-color="#905028"/>
<stop offset="0.98" stop-color="#B26F40"/>
<stop offset="1" stop-color="#BE7948"/>
</radialGradient>
<radialGradient id="paint2_radial_1435_249" cx="0" cy="0" r="1" gradientUnits="userSpaceOnUse" gradientTransform="translate(54.2988 4.4213) scale(11.2295 11.2295)">
<stop offset="0.23" stop-color="#F49F52"/>
<stop offset="0.68" stop-color="#642808"/>
<stop offset="0.74" stop-color="#692D0C"/>
<stop offset="0.81" stop-color="#783A16"/>
<stop offset="0.89" stop-color="#905028"/>
<stop offset="0.98" stop-color="#B26F40"/>
<stop offset="1" stop-color="#BE7948"/>
</radialGradient>
<radialGradient id="paint3_radial_1435_249" cx="0" cy="0" r="1" gradientUnits="userSpaceOnUse" gradientTransform="translate(54.2988 4.4213) scale(11.2295 11.2295)">
<stop offset="0.23" stop-color="#F49F52"/>
<stop offset="0.68" stop-color="#642808"/>
<stop offset="0.74" stop-color="#692D0C"/>
<stop offset="0.81" stop-color="#783A16"/>
<stop offset="0.89" stop-color="#905028"/>
<stop offset="0.98" stop-color="#B26F40"/>
<stop offset="1" stop-color="#BE7948"/>
</radialGradient>
<clipPath id="clip0_1435_249">
<rect width="64.138" height="77.9873" fill="white" transform="translate(0.5 0.25)"/>
</clipPath>
</defs>
</svg>
